<?xml version="1.0" encoding="utf-8"?>
<!-- Generator: Adobe Illustrator 16.2.1, SVG Export Plug-In . SVG Version: 6.00 Build 0)  -->
<!DOCTYPE svg PUBLIC "-//W3C//DTD SVG 1.1//EN" "http://www.w3.org/Graphics/SVG/1.1/DTD/svg11.dtd">
<svg version="1.1" id="Layer_1" xmlns="http://www.w3.org/2000/svg" xmlns:xlink="http://www.w3.org/1999/xlink" x="0px" y="0px"
	 width="165px" height="68px" viewBox="0 0 165 68" enable-background="new 0 0 165 68" xml:space="preserve">
<path fill="#FFFFFF" stroke="#FFFFFF" stroke-miterlimit="10" d="M57.854,21.196c-0.733-0.122-4.033-0.733-4.888-0.855
	c-0.855-0.123-1.712-0.978-3.056-1.711c-1.345-0.734-1.956-3.422-1.956-3.422l-3.124-0.123l-0.055-0.61c0,0,0.122-1.1,0-1.838
	s-0.855-1.462-1.711-2.196c-0.856-0.733-2.689-1.588-2.689-1.588s-10.1-1.608-11.61-1.1c-3.115,1.045-3.179,5.133-3.179,5.133
	l-3.363-0.095l-0.306,2.444c-0.533,1.258-1.833,2.017-1.833,2.017l-1.587,0.279L9.454,30.974l4.277,0.367l8.556,29.7l5.011-3.299
	l16.912,0.605l0.566,0.006l8.067-31.413l5.622-4.889C58.465,22.052,58.588,21.318,57.854,21.196z M23.021,58.463l-7.428-27.611
	l6.453-7.053c0,0,3.977,32.713,4.052,32.338C26.082,56.215,23.033,58.611,23.021,58.463z M43.43,55.762l-14.856-0.449l-3.902-32.865
	l25.36,2.223L43.43,55.762z"/>
<polygon fill="#FFFFFF" stroke="#FFFFFF" stroke-miterlimit="10" points="44.776,58.354 38.853,61.689 22.645,61.689 27.298,57.742 
	"/>
<path fill="none" stroke="#FEEB11" stroke-miterlimit="10" d="M25.651,10.114"/>
<polygon fill="#FFFFFF" stroke="#FFFFFF" stroke-miterlimit="10" points="31.631,7.621 30.593,6.691 32.242,3.392 33.963,6.325 
	33.532,7.743 "/>
<text transform="matrix(1 0 0 1 58.4731 51.9824)" fill="#FFFFFF" font-family="'OpenSans-Bold'" font-size="32.4132">LEERY</text>
<path fill="#FFD12E" d="M32.868,56.041c-2.921-6.188-1.203-6.186-0.171-8.078c1.031-1.891,3.089-8.076,3.089-8.076
	s0.253,5.586,2.711,8.076c2.964,3.006,0.983,5.83,0.901,6.703c-0.128,1.375-2.062,1.375-2.062,1.375H32.868z"/>
</svg>
