<?xml version="1.0" encoding="utf-8"?>
<!-- Generator: Adobe Illustrator 16.2.1, SVG Export Plug-In . SVG Version: 6.00 Build 0)  -->
<!DOCTYPE svg PUBLIC "-//W3C//DTD SVG 1.1//EN" "http://www.w3.org/Graphics/SVG/1.1/DTD/svg11.dtd">
<svg version="1.1" id="Layer_1" xmlns="http://www.w3.org/2000/svg" xmlns:xlink="http://www.w3.org/1999/xlink" x="0px" y="0px"
	 width="68px" height="68px" viewBox="0 0 68 68" enable-background="new 0 0 68 68" xml:space="preserve">
<path fill="#FFFFFF" stroke="#FFFFFF" stroke-miterlimit="10" d="M57.854,23.196c-0.731-0.122-4.033-0.733-4.888-0.855
	c-0.854-0.123-1.712-0.978-3.056-1.711c-1.346-0.734-1.955-3.422-1.955-3.422l-3.124-0.123l-0.056-0.61c0,0,0.123-1.1,0-1.838
	c-0.121-0.738-0.854-1.462-1.711-2.196c-0.855-0.733-2.688-1.588-2.688-1.588s-10.101-1.608-11.611-1.1
	c-3.115,1.045-3.179,5.133-3.179,5.133l-3.363-0.095l-0.306,2.444c-0.533,1.258-1.833,2.017-1.833,2.017l-1.587,0.279L9.454,32.974
	l4.277,0.367l8.556,29.7l5.011-3.299l16.912,0.605l0.565,0.006l8.067-31.414l5.621-4.889C58.465,24.052,58.588,23.318,57.854,23.196
	z M23.021,60.463l-7.428-27.611l6.453-7.053c0,0,3.977,32.713,4.052,32.338C26.082,58.215,23.033,60.611,23.021,60.463z
	 M43.43,57.762l-14.855-0.449l-3.902-32.864l25.36,2.223L43.43,57.762z"/>
<polygon fill="#FFFFFF" stroke="#FFFFFF" stroke-miterlimit="10" points="44.775,60.354 38.854,63.689 22.645,63.689 27.298,59.742 
	"/>
<path fill="none" stroke="#FEEB11" stroke-miterlimit="10" d="M25.651,12.114"/>
<polygon fill="#FFFFFF" stroke="#FFFFFF" stroke-miterlimit="10" points="31.631,9.621 30.593,8.691 32.242,5.392 33.963,8.325 
	33.532,9.743 "/>
<path fill="#FFFFFF" d="M32.868,58.041c-2.921-6.188-1.203-6.186-0.171-8.078c1.031-1.891,3.089-8.076,3.089-8.076
	s0.253,5.586,2.711,8.076c2.964,3.006,0.983,5.83,0.901,6.703c-0.129,1.375-2.062,1.375-2.062,1.375H32.868z"/>
</svg>
